ffmpeg version N-112380-gc7fb4d0eb6-20231008 Copyright (c) 2000-2023 the FFmpeg developers
  built with gcc 13.2.0 (crosstool-NG 1.25.0.232_c175b21)
  configuration: --prefix=/ffbuild/prefix --pkg-config-flags=--static --pkg-config=pkg-config --cross-prefix=x86_64-w64-mingw32- --arch=x86_64 --target-os=mingw32 --enable-gpl --enable-version3 --disable-debug --enable-shared --disable-static --disable-w32threads --enable-pthreads --enable-iconv --enable-libxml2 --enable-zlib --enable-libfreetype --enable-libfribidi --enable-gmp --enable-lzma --enable-fontconfig --enable-libharfbuzz --enable-libvorbis --enable-opencl --disable-libpulse --enable-libvmaf --disable-libxcb --disable-xlib --enable-amf --enable-libaom --enable-libaribb24 --enable-avisynth --enable-chromaprint --enable-libdav1d --enable-libdavs2 --disable-libfdk-aac --enable-ffnvcodec --enable-cuda-llvm --enable-frei0r --enable-libgme --enable-libkvazaar --enable-libass --enable-libbluray --enable-libjxl --enable-libmp3lame --enable-libopus --enable-librist --enable-libssh --enable-libtheora --enable-libvpx --enable-libwebp --enable-lv2 --enable-libvpl --enable-openal --enable-libopencore-amrnb --enable-libopencore-amrwb --enable-libopenh264 --enable-libopenjpeg --enable-libopenmpt --enable-librav1e --enable-librubberband --enable-schannel --enable-sdl2 --enable-libsoxr --enable-libsrt --enable-libsvtav1 --enable-libtwolame --enable-libuavs3d --disable-libdrm --enable-vaapi --enable-libvidstab --enable-vulkan --enable-libshaderc --enable-libplacebo --enable-libx264 --enable-libx265 --enable-libxavs2 --enable-libxvid --enable-libzimg --enable-libzvbi --extra-cflags=-DLIBTWOLAME_STATIC --extra-cxxflags= --extra-ldflags=-pthread --extra-ldexeflags= --extra-libs=-lgomp --extra-version=20231008
  libavutil      58. 27.100 / 58. 27.100
  libavcodec     60. 30.101 / 60. 30.101
  libavformat    60. 15.100 / 60. 15.100
  libavdevice    60.  2.101 / 60.  2.101
  libavfilter     9. 11.100 /  9. 11.100
  libswscale      7.  4.100 /  7.  4.100
  libswresample   4. 11.100 /  4. 11.100
  libpostproc    57.  2.100 / 57.  2.100
Splitting the commandline.
Reading option '-v' ... matched as option 'v' (set logging level) with argument 'debug'.
Reading option '-nostdin' ... matched as option 'stdin' (enable or disable interaction on standard input) with argument 0.
Reading option '-progress' ... matched as option 'progress' (write program-readable progress information) with argument 'C:/Users/defga/AppData/Local/Temp/KritaFFmpegProgress.exSFjv'.
Reading option '-r' ... matched as option 'r' (set frame rate (Hz value, fraction or abbreviation)) with argument '8'.
Reading option '-start_number' ... matched as AVOption 'start_number' with argument '0'.
Reading option '-i' ... matched as output url with argument 'C:/Users/defga/OneDrive/Documents/GitHub/AIs-with-Grenade-Launchers-Fight/assets/AI/Move/frame%04d.png'.
Reading option '-vf' ... matched as option 'vf' (set video filters) with argument 'palettegen'.
Reading option '-y' ... matched as option 'y' (overwrite output files) with argument '1'.
Reading option 'C:/Users/defga/OneDrive/Documents/GitHub/AIs-with-Grenade-Launchers-Fight/assets/AI/Move/palette.png' ... matched as output url.
Finished splitting the commandline.
Parsing a group of options: global .
Applying option v (set logging level) with argument debug.
Applying option nostdin (enable or disable interaction on standard input) with argument 0.
Applying option progress (write program-readable progress information) with argument C:/Users/defga/AppData/Local/Temp/KritaFFmpegProgress.exSFjv.
[file @ 000001ca24d795c0] Setting default whitelist 'file,crypto,data'
Applying option y (overwrite output files) with argument 1.
Successfully parsed a group of options.
Parsing a group of options: input url C:/Users/defga/OneDrive/Documents/GitHub/AIs-with-Grenade-Launchers-Fight/assets/AI/Move/frame%04d.png.
Applying option r (set frame rate (Hz value, fraction or abbreviation)) with argument 8.
Successfully parsed a group of options.
Opening an input file: C:/Users/defga/OneDrive/Documents/GitHub/AIs-with-Grenade-Launchers-Fight/assets/AI/Move/frame%04d.png.
[image2 @ 000001ca24d6d000] Opening 'C:/Users/defga/OneDrive/Documents/GitHub/AIs-with-Grenade-Launchers-Fight/assets/AI/Move/frame0000.png' for reading
[file @ 000001ca24e49e00] Setting default whitelist 'file,crypto,data'
[AVIOContext @ 000001ca24e52000] Statistics: 1240 bytes read, 0 seeks
[image2 @ 000001ca24d6d000] Opening 'C:/Users/defga/OneDrive/Documents/GitHub/AIs-with-Grenade-Launchers-Fight/assets/AI/Move/frame0001.png' for reading
[file @ 000001ca24e52800] Setting default whitelist 'file,crypto,data'
[AVIOContext @ 000001ca26c28100] Statistics: 1270 bytes read, 0 seeks
[image2 @ 000001ca24d6d000] Opening 'C:/Users/defga/OneDrive/Documents/GitHub/AIs-with-Grenade-Launchers-Fight/assets/AI/Move/frame0002.png' for reading
[file @ 000001ca24e5e1c0] Setting default whitelist 'file,crypto,data'
[AVIOContext @ 000001ca26c28100] Statistics: 1255 bytes read, 0 seeks
[image2 @ 000001ca24d6d000] Opening 'C:/Users/defga/OneDrive/Documents/GitHub/AIs-with-Grenade-Launchers-Fight/assets/AI/Move/frame0003.png' for reading
[file @ 000001ca24e5e1c0] Setting default whitelist 'file,crypto,data'
[AVIOContext @ 000001ca26c28100] Statistics: 1270 bytes read, 0 seeks
Input #0, image2, from 'C:/Users/defga/OneDrive/Documents/GitHub/AIs-with-Grenade-Launchers-Fight/assets/AI/Move/frame%04d.png':
  Duration: 00:00:00.16, start: 0.000000, bitrate: N/A
  Stream #0:0, 4, 1/25: Video: png, 1 reference frame, rgba(pc, gbr/unknown/unknown), 20x40 [SAR 11811:11811 DAR 1:2], 0/1, 25 fps, 25 tbr, 25 tbn
Successfully opened the file.
Parsing a group of options: output url C:/Users/defga/OneDrive/Documents/GitHub/AIs-with-Grenade-Launchers-Fight/assets/AI/Move/palette.png.
Applying option vf (set video filters) with argument palettegen.
Successfully parsed a group of options.
Opening an output file: C:/Users/defga/OneDrive/Documents/GitHub/AIs-with-Grenade-Launchers-Fight/assets/AI/Move/palette.png.
[out#0/image2 @ 000001ca24dbab00] No explicit maps, mapping streams automatically...
[vost#0:0/png @ 000001ca26c29cc0] Created video stream from input stream 0:0
detected 12 logical cores
Successfully opened the file.
Stream mapping:
  Stream #0:0 -> #0:0 (png (native) -> png (native))
[in#0/image2 @ 000001ca24d7b980] EOF while reading input
[in#0/image2 @ 000001ca24d7b980] Terminating demuxer thread
[vist#0:0/png @ 000001ca24d6d880] Decoder thread received EOF packet
[vist#0:0/png @ 000001ca24d6d880] Decoder returned EOF, finishing
[vist#0:0/png @ 000001ca24d6d880] Terminating decoder thread
[graph 0 input from stream 0:0 @ 000001ca24d79bc0] Setting 'video_size' to value '20x40'
[graph 0 input from stream 0:0 @ 000001ca24d79bc0] Setting 'pix_fmt' to value '26'
[graph 0 input from stream 0:0 @ 000001ca24d79bc0] Setting 'time_base' to value '1/8'
[graph 0 input from stream 0:0 @ 000001ca24d79bc0] Setting 'pixel_aspect' to value '11811/11811'
[graph 0 input from stream 0:0 @ 000001ca24d79bc0] Setting 'frame_rate' to value '8/1'
[graph 0 input from stream 0:0 @ 000001ca24d79bc0] w:20 h:40 pixfmt:rgba tb:1/8 fr:8/1 sar:11811/11811
[format @ 000001ca24d7a8c0] Setting 'pix_fmts' to value 'rgb24|rgba|rgb48be|rgba64be|pal8|gray|ya8|gray16be|ya16be|monob'
[auto_scale_0 @ 000001ca24d7a2c0] w:iw h:ih flags:'' interl:0
[Parsed_palettegen_0 @ 000001ca24d79ac0] auto-inserting filter 'auto_scale_0' between the filter 'graph 0 input from stream 0:0' and the filter 'Parsed_palettegen_0'
[auto_scale_1 @ 000001ca24d7a9c0] w:iw h:ih flags:'' interl:0
[format @ 000001ca24d7a8c0] auto-inserting filter 'auto_scale_1' between the filter 'Parsed_palettegen_0' and the filter 'format'
[AVFilterGraph @ 000001ca26c4fbc0] query_formats: 4 queried, 1 merged, 2 already done, 0 delayed
[auto_scale_1 @ 000001ca24d7a9c0] picking rgba out of 10 ref:bgra alpha:1
[swscaler @ 000001ca26cae000] [swscaler @ 000001ca26cbafc0] Forcing full internal H chroma due to input having non subsampled chroma
[swscaler @ 000001ca26cae000] [swscaler @ 000001ca26cce000] Forcing full internal H chroma due to input having non subsampled chroma
[swscaler @ 000001ca26cae000] [swscaler @ 000001ca26ce2040] Forcing full internal H chroma due to input having non subsampled chroma
[swscaler @ 000001ca26cae000] [swscaler @ 000001ca26cf5080] Forcing full internal H chroma due to input having non subsampled chroma
[swscaler @ 000001ca26cae000] [swscaler @ 000001ca26d080c0] Forcing full internal H chroma due to input having non subsampled chroma
[swscaler @ 000001ca26cae000] [swscaler @ 000001ca26da4fc0] Forcing full internal H chroma due to input having non subsampled chroma
[swscaler @ 000001ca26cae000] [swscaler @ 000001ca26db8000] Forcing full internal H chroma due to input having non subsampled chroma
[swscaler @ 000001ca26cae000] [swscaler @ 000001ca26dcb040] Forcing full internal H chroma due to input having non subsampled chroma
[swscaler @ 000001ca26cae000] [swscaler @ 000001ca26dde040] Forcing full internal H chroma due to input having non subsampled chroma
[swscaler @ 000001ca26cae000] [swscaler @ 000001ca26df1080] Forcing full internal H chroma due to input having non subsampled chroma
[swscaler @ 000001ca26cae000] [swscaler @ 000001ca26e040c0] Forcing full internal H chroma due to input having non subsampled chroma
[swscaler @ 000001ca26cae000] [swscaler @ 000001ca26e17100] Forcing full internal H chroma due to input having non subsampled chroma
[swscaler @ 000001ca26cae000] [swscaler @ 000001ca26e2a100] Forcing full internal H chroma due to input having non subsampled chroma
[auto_scale_0 @ 000001ca24d7a2c0] w:20 h:40 fmt:rgba sar:11811/11811 -> w:20 h:40 fmt:bgra sar:1/1 flags:0x00000004
[swscaler @ 000001ca26e3d140] [swscaler @ 000001ca26e56980] Forcing full internal H chroma due to input having non subsampled chroma
[swscaler @ 000001ca26e3d140] [swscaler @ 000001ca26e69980] Forcing full internal H chroma due to input having non subsampled chroma
[swscaler @ 000001ca26e3d140] [swscaler @ 000001ca26e7d9c0] Forcing full internal H chroma due to input having non subsampled chroma
[swscaler @ 000001ca26e3d140] [swscaler @ 000001ca26e90a00] Forcing full internal H chroma due to input having non subsampled chroma
[swscaler @ 000001ca26e3d140] [swscaler @ 000001ca26ea3a40] Forcing full internal H chroma due to input having non subsampled chroma
[swscaler @ 000001ca26e3d140] [swscaler @ 000001ca26eb6a80] Forcing full internal H chroma due to input having non subsampled chroma
[swscaler @ 000001ca26e3d140] [swscaler @ 000001ca26ec9a80] Forcing full internal H chroma due to input having non subsampled chroma
[swscaler @ 000001ca26e3d140] [swscaler @ 000001ca26edcac0] Forcing full internal H chroma due to input having non subsampled chroma
[swscaler @ 000001ca26e3d140] [swscaler @ 000001ca26eefb00] Forcing full internal H chroma due to input having non subsampled chroma
[swscaler @ 000001ca26e3d140] [swscaler @ 000001ca26f02b40] Forcing full internal H chroma due to input having non subsampled chroma
[swscaler @ 000001ca26e3d140] [swscaler @ 000001ca270200c0] Forcing full internal H chroma due to input having non subsampled chroma
[swscaler @ 000001ca26e3d140] [swscaler @ 000001ca2702d080] Forcing full internal H chroma due to input having non subsampled chroma
[swscaler @ 000001ca26e3d140] [swscaler @ 000001ca270400c0] Forcing full internal H chroma due to input having non subsampled chroma
[auto_scale_1 @ 000001ca24d7a9c0] w:16 h:16 fmt:bgra sar:1/1 -> w:16 h:16 fmt:rgba sar:1/1 flags:0x00000004
[swscaler @ 000001ca26cae000] [swscaler @ 000001ca26cbafc0] Forcing full internal H chroma due to input having non subsampled chroma
[swscaler @ 000001ca26cae000] [swscaler @ 000001ca26cce000] Forcing full internal H chroma due to input having non subsampled chroma
[swscaler @ 000001ca26cae000] [swscaler @ 000001ca26ce2040] Forcing full internal H chroma due to input having non subsampled chroma
[swscaler @ 000001ca26cae000] [swscaler @ 000001ca26cf5080] Forcing full internal H chroma due to input having non subsampled chroma
[swscaler @ 000001ca26cae000] [swscaler @ 000001ca26d080c0] Forcing full internal H chroma due to input having non subsampled chroma
[swscaler @ 000001ca26cae000] [swscaler @ 000001ca26da4640] Forcing full internal H chroma due to input having non subsampled chroma
[swscaler @ 000001ca26cae000] [swscaler @ 000001ca26db7680] Forcing full internal H chroma due to input having non subsampled chroma
[swscaler @ 000001ca26cae000] [swscaler @ 000001ca26dca6c0] Forcing full internal H chroma due to input having non subsampled chroma
[swscaler @ 000001ca26cae000] [swscaler @ 000001ca26ddd700] Forcing full internal H chroma due to input having non subsampled chroma
[swscaler @ 000001ca26cae000] [swscaler @ 000001ca26df0700] Forcing full internal H chroma due to input having non subsampled chroma
[swscaler @ 000001ca26cae000] [swscaler @ 000001ca26e03740] Forcing full internal H chroma due to input having non subsampled chroma
[swscaler @ 000001ca26cae000] [swscaler @ 000001ca26e16780] Forcing full internal H chroma due to input having non subsampled chroma
[swscaler @ 000001ca26cae000] [swscaler @ 000001ca26e297c0] Forcing full internal H chroma due to input having non subsampled chroma
[auto_scale_0 @ 000001ca24d7a2c0] w:20 h:40 fmt:rgba sar:11811/11811 -> w:20 h:40 fmt:bgra sar:1/1 flags:0x00000004
[swscaler @ 000001ca26cae000] [swscaler @ 000001ca26cbafc0] Forcing full internal H chroma due to input having non subsampled chroma
[swscaler @ 000001ca26cae000] [swscaler @ 000001ca26cce000] Forcing full internal H chroma due to input having non subsampled chroma
[swscaler @ 000001ca26cae000] [swscaler @ 000001ca26ce2040] Forcing full internal H chroma due to input having non subsampled chroma
[swscaler @ 000001ca26cae000] [swscaler @ 000001ca26cf5080] Forcing full internal H chroma due to input having non subsampled chroma
[swscaler @ 000001ca26cae000] [swscaler @ 000001ca26d080c0] Forcing full internal H chroma due to input having non subsampled chroma
[swscaler @ 000001ca26cae000] [swscaler @ 000001ca26da4640] Forcing full internal H chroma due to input having non subsampled chroma
[swscaler @ 000001ca26cae000] [swscaler @ 000001ca26db7680] Forcing full internal H chroma due to input having non subsampled chroma
[swscaler @ 000001ca26cae000] [swscaler @ 000001ca26dca6c0] Forcing full internal H chroma due to input having non subsampled chroma
[swscaler @ 000001ca26cae000] [swscaler @ 000001ca26ddd700] Forcing full internal H chroma due to input having non subsampled chroma
[swscaler @ 000001ca26cae000] [swscaler @ 000001ca26df0700] Forcing full internal H chroma due to input having non subsampled chroma
[swscaler @ 000001ca26cae000] [swscaler @ 000001ca26e03740] Forcing full internal H chroma due to input having non subsampled chroma
[swscaler @ 000001ca26cae000] [swscaler @ 000001ca26e16780] Forcing full internal H chroma due to input having non subsampled chroma
[swscaler @ 000001ca26cae000] [swscaler @ 000001ca26e297c0] Forcing full internal H chroma due to input having non subsampled chroma
[auto_scale_0 @ 000001ca24d7a2c0] w:20 h:40 fmt:rgba sar:11811/11811 -> w:20 h:40 fmt:bgra sar:1/1 flags:0x00000004
[swscaler @ 000001ca26cae000] [swscaler @ 000001ca26cbafc0] Forcing full internal H chroma due to input having non subsampled chroma
[swscaler @ 000001ca26cae000] [swscaler @ 000001ca26cce000] Forcing full internal H chroma due to input having non subsampled chroma
[swscaler @ 000001ca26cae000] [swscaler @ 000001ca26ce2040] Forcing full internal H chroma due to input having non subsampled chroma
[swscaler @ 000001ca26cae000] [swscaler @ 000001ca26cf5080] Forcing full internal H chroma due to input having non subsampled chroma
[swscaler @ 000001ca26cae000] [swscaler @ 000001ca26d080c0] Forcing full internal H chroma due to input having non subsampled chroma
[swscaler @ 000001ca26cae000] [swscaler @ 000001ca26da4640] Forcing full internal H chroma due to input having non subsampled chroma
[swscaler @ 000001ca26cae000] [swscaler @ 000001ca26db7680] Forcing full internal H chroma due to input having non subsampled chroma
[swscaler @ 000001ca26cae000] [swscaler @ 000001ca26dca6c0] Forcing full internal H chroma due to input having non subsampled chroma
[swscaler @ 000001ca26cae000] [swscaler @ 000001ca26ddd700] Forcing full internal H chroma due to input having non subsampled chroma
[swscaler @ 000001ca26cae000] [swscaler @ 000001ca26df0700] Forcing full internal H chroma due to input having non subsampled chroma
[swscaler @ 000001ca26cae000] [swscaler @ 000001ca26e03740] Forcing full internal H chroma due to input having non subsampled chroma
[swscaler @ 000001ca26cae000] [swscaler @ 000001ca26e16780] Forcing full internal H chroma due to input having non subsampled chroma
[swscaler @ 000001ca26cae000] [swscaler @ 000001ca26e297c0] Forcing full internal H chroma due to input having non subsampled chroma
[auto_scale_0 @ 000001ca24d7a2c0] w:20 h:40 fmt:rgba sar:11811/11811 -> w:20 h:40 fmt:bgra sar:1/1 flags:0x00000004
[Parsed_palettegen_0 @ 000001ca24d79ac0] 29(+1) colors generated out of 29 colors; ratio=1.000000
[Parsed_palettegen_0 @ 000001ca24d79ac0] Duped color: FF090509
Output #0, image2, to 'C:/Users/defga/OneDrive/Documents/GitHub/AIs-with-Grenade-Launchers-Fight/assets/AI/Move/palette.png':
  Metadata:
    encoder         : Lavf60.15.100
  Stream #0:0, 0, 1/8: Video: png, 1 reference frame, rgba(pc, gbr/unknown/unknown, progressive), 16x16 (0x0) [SAR 1:1 DAR 1:1], 0/1, q=2-31, 200 kb/s, 8 fps, 8 tbn
    Metadata:
      encoder         : Lavc60.30.101 png
frame=    0 fps=0.0 q=0.0 size=       0kB time=N/A bitrate=N/A speed=N/A    [out_0_0 @ 000001ca24d7b3c0] EOF on sink link out_0_0:default.
No more output streams to write to, finishing.
[image2 @ 000001ca26c29240] The specified filename 'C:/Users/defga/OneDrive/Documents/GitHub/AIs-with-Grenade-Launchers-Fight/assets/AI/Move/palette.png' does not contain an image sequence pattern or a pattern is invalid.
[image2 @ 000001ca26c29240] Use a pattern such as %03d for an image sequence or use the -update option (with -frames:v 1 if needed) to write a single image.
[image2 @ 000001ca26c29240] Opening 'C:/Users/defga/OneDrive/Documents/GitHub/AIs-with-Grenade-Launchers-Fight/assets/AI/Move/palette.png' for writing
[file @ 000001ca26c42980] Setting default whitelist 'file,crypto,data'
[AVIOContext @ 000001ca24e5e000] Statistics: 220 bytes written, 0 seeks, 1 writeouts
[out#0/image2 @ 000001ca24dbab00] All streams finished
[out#0/image2 @ 000001ca24dbab00] Terminating muxer thread
[out#0/image2 @ 000001ca24dbab00] Output file #0 (C:/Users/defga/OneDrive/Documents/GitHub/AIs-with-Grenade-Launchers-Fight/assets/AI/Move/palette.png):
[out#0/image2 @ 000001ca24dbab00]   Output stream #0:0 (video): 1 frames encoded; 1 packets muxed (220 bytes); 
[out#0/image2 @ 000001ca24dbab00]   Total: 1 packets (220 bytes) muxed
[out#0/image2 @ 000001ca24dbab00] video:0kB audio:0kB subtitle:0kB other streams:0kB global headers:0kB muxing overhead: unknown
frame=    1 fps=0.0 q=-0.0 Lsize=N/A time=00:00:00.00 bitrate=N/A speed=   0x    
[AVIOContext @ 000001ca24d71900] Statistics: 326 bytes written, 0 seeks, 2 writeouts
[in#0/image2 @ 000001ca24d7b980] Input file #0 (C:/Users/defga/OneDrive/Documents/GitHub/AIs-with-Grenade-Launchers-Fight/assets/AI/Move/frame%04d.png):
[in#0/image2 @ 000001ca24d7b980]   Input stream #0:0 (video): 4 packets read (5035 bytes); 4 frames decoded; 0 decode errors; 
[in#0/image2 @ 000001ca24d7b980]   Total: 4 packets (5035 bytes) demuxed
